# xmcd CD database file
#
# Track frame offsets:
#	150
#	22779
#	53460
#	64798
#	95330
#	116026
#	133288
#	172055
#	193869
#	233384
#	249149
#	283985
#	313941
#	332079
#
# Disc length: 4556 seconds
#
# Revision: 0
# Processed by: cddbd v1.5.2PL0 Copyright (c) Steve Scherf et al.
# Submitted via: CDex 1.51
#
DISCID=c311ca0e
DTITLE=Latino Blanco Band - around Mulligan
DYEAR=2006
DGENRE=Jazz
TTITLE0=Line for Lyons
TTITLE1=Boplicity (Cleo henry)
TTITLE2=Swinghouse
TTITLE3=Darn that dream (DeLange - Van heusen)
TTITLE4=Venus de Milo
TTITLE5=Bernie's tune (Leiber/Miller/Stoller)
TTITLE6=Festive minor
TTITLE7=Apple core
TTITLE8=I know, don't know why
TTITLE9=Walkin' shoes
TTITLE10=Revelation
TTITLE11=Angela (Francisco Blanco)
TTITLE12=Carioca (Eliscu/Kahn/Youmans)
TTITLE13=Utter chaos (Concert end)
EXTD=YEAR: 2006
EXTT0=
EXTT1=
EXTT2=
EXTT3=
EXTT4=
EXTT5=
EXTT6=
EXTT7=
EXTT8=
EXTT9=
EXTT10=
EXTT11=
EXTT12=
EXTT13=
PLAYORDER=
